<svg id="Capa_1" enable-background="new 0 0 512 512" height="512" viewBox="0 0 512 512" width="512" xmlns="http://www.w3.org/2000/svg"><g><g><path d="m245 512h-30c-8.284 0-15-6.716-15-15v-48.93c0-66.66-32.598-129.277-87.202-167.49-70.63-49.434-112.798-130.43-112.798-216.65v-48.93c0-8.284 6.716-15 15-15h30c8.284 0 15 6.716 15 15v48.93c0 66.66 32.598 129.277 87.207 167.49 70.625 49.434 112.793 130.43 112.793 216.65v48.93c0 8.284-6.716 15-15 15z"/><g><path d="m197.898 234.169c39.62-47.129 62.102-107.29 62.102-170.239v-48.93c0-8.284-6.716-15-15-15h-30c-8.284 0-15 6.716-15 15v48.93c0 49.118-17.716 96.028-48.879 132.61 4.241 3.624 8.667 7.069 13.285 10.301 11.911 8.336 23.089 17.482 33.492 27.328z"/><path d="m62.102 277.828c-39.619 47.13-62.102 107.292-62.102 170.242v48.93c0 8.284 6.716 15 15 15h30c8.284 0 15-6.716 15-15v-48.93c0-49.12 17.717-96.03 48.879-132.613-4.24-3.624-8.664-7.067-13.282-10.298-11.911-8.337-23.09-17.484-33.495-27.331z"/></g><g><path d="m90 23.328h80v30h-80z"/><path d="m90 458.671h80v30h-80z"/><g><path d="m163.596 401.343h-67.189c-2.728 9.788-4.605 19.825-5.59 30h78.359c-.986-10.207-2.859-20.242-5.58-30z"/><path d="m90.815 80.656c.984 10.206 2.852 20.242 5.568 30h67.21c2.728-9.788 4.605-19.825 5.59-30z"/><path d="m106.534 137.984c4.953 10.56 10.956 20.613 17.929 30h11.065c6.996-9.417 12.991-19.475 17.929-30z"/><path d="m153.466 374.015c-4.953-10.56-10.956-20.613-17.928-30h-11.066c-6.995 9.417-12.991 19.475-17.929 30z"/></g></g></g><g><path d="m482 441c-16.542 0-30-13.458-30-30s13.458-30 30-30 30 13.458 30 30-13.458 30-30 30z"/><path d="m482 131c-16.542 0-30-13.458-30-30s13.458-30 30-30 30 13.458 30 30-13.458 30-30 30z"/><circle cx="482" cy="256" r="30"/></g><g><path d="m446.029 363.01-70.427-49.299c-2.521-1.764-5.524-2.711-8.602-2.711h-110.886c5.118 9.731 9.693 19.746 13.698 30h92.46l64.984 45.489c4.193-9.326 10.687-17.402 18.773-23.479z"/><path d="m375.602 198.289 70.427-49.299c-8.086-6.077-14.58-14.152-18.773-23.479l-64.985 45.489h-92.459c-4.006 10.254-8.58 20.269-13.699 30h110.887c3.078 0 6.081-.947 8.602-2.711z"/><path d="m423.899 241h-193.113c-3.854 5.124-7.884 10.124-12.076 14.999 4.193 4.875 8.223 9.877 12.078 15.001h193.111c-1.239-4.796-1.899-9.822-1.899-15s.66-10.204 1.899-15z"/></g></g></svg>