<svg width="679" height="350" xmlns="http://www.w3.org/2000/svg" xmlns:xlink="http://www.w3.org/1999/xlink" xml:space="preserve" overflow="hidden"><defs><clipPath id="clip0"><rect x="1" y="1" width="679" height="350"/></clipPath><clipPath id="clip1"><rect x="1" y="94" width="73" height="73"/></clipPath><clipPath id="clip2"><rect x="1" y="94" width="73" height="73"/></clipPath><clipPath id="clip3"><rect x="1" y="94" width="73" height="73"/></clipPath><clipPath id="clip4"><rect x="1" y="94" width="73" height="73"/></clipPath><clipPath id="clip5"><rect x="145" y="185" width="74" height="74"/></clipPath><clipPath id="clip6"><rect x="145" y="185" width="74" height="74"/></clipPath><clipPath id="clip7"><rect x="145" y="185" width="74" height="74"/></clipPath><clipPath id="clip8"><rect x="145" y="185" width="74" height="74"/></clipPath><clipPath id="clip9"><rect x="161" y="205" width="41" height="41"/></clipPath><clipPath id="clip10"><rect x="161" y="205" width="41" height="41"/></clipPath><clipPath id="clip11"><rect x="161" y="205" width="41" height="41"/></clipPath><clipPath id="clip12"><rect x="603" y="94" width="73" height="73"/></clipPath><clipPath id="clip13"><rect x="603" y="94" width="73" height="73"/></clipPath><clipPath id="clip14"><rect x="603" y="94" width="73" height="73"/></clipPath><clipPath id="clip15"><rect x="603" y="94" width="73" height="73"/></clipPath><clipPath id="clip16"><rect x="603" y="185" width="73" height="74"/></clipPath><clipPath id="clip17"><rect x="603" y="185" width="73" height="74"/></clipPath><clipPath id="clip18"><rect x="603" y="185" width="73" height="74"/></clipPath><clipPath id="clip19"><rect x="603" y="185" width="73" height="74"/></clipPath><clipPath id="clip20"><rect x="101" y="94" width="73" height="73"/></clipPath><clipPath id="clip21"><rect x="101" y="94" width="73" height="73"/></clipPath><clipPath id="clip22"><rect x="101" y="94" width="73" height="73"/></clipPath><clipPath id="clip23"><rect x="101" y="94" width="73" height="73"/></clipPath><clipPath id="clip24"><rect x="201" y="94" width="73" height="73"/></clipPath><clipPath id="clip25"><rect x="201" y="94" width="73" height="73"/></clipPath><clipPath id="clip26"><rect x="201" y="94" width="73" height="73"/></clipPath><clipPath id="clip27"><rect x="201" y="94" width="73" height="73"/></clipPath><clipPath id="clip28"><rect x="301" y="94" width="73" height="73"/></clipPath><clipPath id="clip29"><rect x="301" y="94" width="73" height="73"/></clipPath><clipPath id="clip30"><rect x="301" y="94" width="73" height="73"/></clipPath><clipPath id="clip31"><rect x="301" y="94" width="73" height="73"/></clipPath><clipPath id="clip32"><rect x="402" y="94" width="74" height="73"/></clipPath><clipPath id="clip33"><rect x="402" y="94" width="74" height="73"/></clipPath><clipPath id="clip34"><rect x="402" y="94" width="74" height="73"/></clipPath><clipPath id="clip35"><rect x="402" y="94" width="74" height="73"/></clipPath><clipPath id="clip36"><rect x="502" y="94" width="74" height="73"/></clipPath><clipPath id="clip37"><rect x="502" y="94" width="74" height="73"/></clipPath><clipPath id="clip38"><rect x="502" y="94" width="74" height="73"/></clipPath><clipPath id="clip39"><rect x="502" y="94" width="74" height="73"/></clipPath><clipPath id="clip40"><rect x="509" y="278" width="73" height="73"/></clipPath><clipPath id="clip41"><rect x="509" y="278" width="73" height="73"/></clipPath><clipPath id="clip42"><rect x="509" y="278" width="73" height="73"/></clipPath><clipPath id="clip43"><rect x="509" y="278" width="73" height="73"/></clipPath><clipPath id="clip44"><rect x="603" y="278" width="73" height="73"/></clipPath><clipPath id="clip45"><rect x="603" y="278" width="73" height="73"/></clipPath><clipPath id="clip46"><rect x="603" y="278" width="73" height="73"/></clipPath><clipPath id="clip47"><rect x="603" y="278" width="73" height="73"/></clipPath><clipPath id="clip48"><rect x="356" y="186" width="74" height="73"/></clipPath><clipPath id="clip49"><rect x="356" y="186" width="74" height="73"/></clipPath><clipPath id="clip50"><rect x="356" y="186" width="74" height="73"/></clipPath><clipPath id="clip51"><rect x="356" y="186" width="74" height="73"/></clipPath><clipPath id="clip52"><rect x="453" y="186" width="73" height="73"/></clipPath><clipPath id="clip53"><rect x="453" y="186" width="73" height="73"/></clipPath><clipPath id="clip54"><rect x="453" y="186" width="73" height="73"/></clipPath><clipPath id="clip55"><rect x="453" y="186" width="73" height="73"/></clipPath><clipPath id="clip56"><rect x="45" y="185" width="74" height="74"/></clipPath><clipPath id="clip57"><rect x="45" y="185" width="74" height="74"/></clipPath><clipPath id="clip58"><rect x="45" y="185" width="74" height="74"/></clipPath><clipPath id="clip59"><rect x="45" y="185" width="74" height="74"/></clipPath><clipPath id="clip60"><rect x="246" y="185" width="73" height="74"/></clipPath><clipPath id="clip61"><rect x="246" y="185" width="73" height="74"/></clipPath><clipPath id="clip62"><rect x="246" y="185" width="73" height="74"/></clipPath><clipPath id="clip63"><rect x="246" y="185" width="73" height="74"/></clipPath><clipPath id="clip64"><rect x="301" y="1" width="74" height="73"/></clipPath><clipPath id="clip65"><rect x="301" y="1" width="74" height="73"/></clipPath><clipPath id="clip66"><rect x="301" y="1" width="74" height="73"/></clipPath><clipPath id="clip67"><rect x="301" y="1" width="74" height="73"/></clipPath><clipPath id="clip68"><rect x="246" y="277" width="73" height="74"/></clipPath><clipPath id="clip69"><rect x="246" y="277" width="73" height="74"/></clipPath><clipPath id="clip70"><rect x="246" y="277" width="73" height="74"/></clipPath><clipPath id="clip71"><rect x="246" y="277" width="73" height="74"/></clipPath><clipPath id="clip72"><rect x="48" y="291" width="13" height="12"/></clipPath><clipPath id="clip73"><rect x="48" y="291" width="13" height="12"/></clipPath><clipPath id="clip74"><rect x="48" y="291" width="13" height="12"/></clipPath><clipPath id="clip75"><rect x="146" y="277" width="73" height="74"/></clipPath><clipPath id="clip76"><rect x="146" y="277" width="73" height="74"/></clipPath><clipPath id="clip77"><rect x="146" y="277" width="73" height="74"/></clipPath><clipPath id="clip78"><rect x="146" y="277" width="73" height="74"/></clipPath><clipPath id="clip79"><rect x="415" y="278" width="73" height="73"/></clipPath><clipPath id="clip80"><rect x="415" y="278" width="73" height="73"/></clipPath><clipPath id="clip81"><rect x="415" y="278" width="73" height="73"/></clipPath><clipPath id="clip82"><rect x="415" y="278" width="73" height="73"/></clipPath></defs><g clip-path="url(#clip0)" transform="translate(-1 -1)"><g clip-path="url(#clip1)"><g clip-path="url(#clip2)"><g clip-path="url(#clip3)"><g clip-path="url(#clip4)"><path d="M253.172 211.623 221.432 211.623C217.675 211.623 214.63 214.619 214.63 218.314L214.63 209.392C214.63 205.697 217.675 202.702 221.432 202.702L244.103 202.702Z" fill="#FFA000" fill-rule="evenodd" transform="matrix(1 0 0 1.00066 -213.63 -99.0947)"/><path d="M286.836 218.29 286.836 250.05C286.836 253.809 283.806 256.856 280.065 256.856L221.402 256.856C217.66 256.856 214.63 253.809 214.63 250.05L214.63 218.29C214.63 214.531 217.66 211.484 221.402 211.484L280.065 211.484C283.806 211.484 286.836 214.531 286.836 218.29Z" fill="#FFCA28" fill-rule="evenodd" transform="matrix(1 0 0 1.00066 -213.63 -99.0947)"/></g></g></g></g><g clip-path="url(#clip5)"><g clip-path="url(#clip6)"><g clip-path="url(#clip7)"><g clip-path="url(#clip8)"><path d="M397.938 302.996 365.906 302.996C362.114 302.996 359.042 306.113 359.042 309.959L359.042 300.674C359.042 296.829 362.114 293.711 365.906 293.711L388.785 293.711Z" fill="#FFA000" fill-rule="evenodd" transform="matrix(1 0 0 1.00066 -213.63 -99.0947)"/><path d="M431.91 309.934 431.91 341.986C431.91 345.779 428.852 348.855 425.077 348.855L365.876 348.855C362.099 348.855 359.042 345.779 359.042 341.986L359.042 309.934C359.042 306.141 362.099 303.066 365.876 303.066L425.077 303.066C428.852 303.066 431.91 306.141 431.91 309.934Z" fill="#FFCA28" fill-rule="evenodd" transform="matrix(1 0 0 1.00066 -213.63 -99.0947)"/><g clip-path="url(#clip9)"><g clip-path="url(#clip10)"><g clip-path="url(#clip11)"><path d="M19.695 4.92353 19.6941 4.92353 2.46259 21.316 4.32532 22.9079 19.6941 8.30844 19.695 8.30844 35.0638 22.9079 36.9265 21.316 19.695 4.92353Z" fill="#000000" fill-opacity="0.3" transform="matrix(1 0 0 1.01317 162.152 205.651)"/><path d="M19.6941 10.5717 7.38527 22.265 7.38527 34.4647 32.003 34.4647 32.003 22.2642ZM19.6941 30.9896C19.6941 30.9896 13.95 26.5969 13.95 23.0491 13.95 20.6837 17.5651 18.1498 19.6941 22.3734 21.8227 18.1498 25.4383 20.6837 25.4383 23.0491 25.4383 26.5969 19.6941 30.9896 19.6941 30.9896Z" fill="#000000" fill-opacity="0.3" transform="matrix(1 0 0 1.01317 162.152 205.651)"/></g></g></g></g></g></g></g><g clip-path="url(#clip12)"><g clip-path="url(#clip13)"><g clip-path="url(#clip14)"><g clip-path="url(#clip15)"><path d="M855.328 211.623 823.591 211.623C819.835 211.623 816.787 214.619 816.787 218.314L816.787 209.392C816.787 205.697 819.835 202.702 823.591 202.702L846.259 202.702Z" fill="#33AACF" fill-rule="evenodd" transform="matrix(1 0 0 1.00066 -213.63 -99.0947)"/><path d="M888.993 218.29 888.993 250.05C888.993 253.809 885.966 256.856 882.223 256.856L823.557 256.856C819.815 256.856 816.787 253.809 816.787 250.05L816.787 218.29C816.787 214.531 819.815 211.484 823.557 211.484L882.223 211.484C885.966 211.484 888.993 214.531 888.993 218.29Z" fill="#64D4FC" fill-rule="evenodd" transform="matrix(1 0 0 1.00066 -213.63 -99.0947)"/></g></g></g></g><g clip-path="url(#clip16)"><g clip-path="url(#clip17)"><g clip-path="url(#clip18)"><g clip-path="url(#clip19)"><path d="M709.373 342.42 677.635 342.42C673.873 342.42 670.832 345.51 670.832 349.32L670.832 340.12C670.832 336.31 673.873 333.22 677.635 333.22L700.304 333.22Z" fill="#FFA000" fill-rule="evenodd" transform="matrix(1 0 0 1.00984 -67.6744 -141.689)"/><path d="M743.038 349.223 743.038 380.642C743.038 384.36 740.011 387.374 736.268 387.374L677.602 387.374C673.859 387.374 670.832 384.36 670.832 380.642L670.832 349.223C670.832 345.504 673.859 342.49 677.602 342.49L736.268 342.49C740.011 342.49 743.038 345.504 743.038 349.223Z" fill="#FFCA28" fill-rule="evenodd" transform="matrix(1 0 0 1.00984 -67.6744 -141.689)"/><path d="M714.255 362.76 714.255 357.885 709.492 357.885 709.492 353.223 704.63 353.223 704.63 357.885 699.973 357.885 699.973 353.223 694.998 353.223 694.998 357.885 690.348 357.885 690.348 362.76 694.998 362.76 694.998 367.316 690.348 367.316 690.348 372.191 694.998 372.191 694.998 376.642 699.973 376.642 699.973 372.191 704.63 372.191 704.63 376.642 709.492 376.642 709.492 372.191 714.255 372.191 714.255 367.316 709.492 367.316 709.492 362.76 714.255 362.76ZM704.63 367.316 699.973 367.316 699.973 362.76 704.63 362.76 704.63 367.316Z" fill="#000000" fill-rule="evenodd" fill-opacity="0.301961" transform="matrix(1 0 0 1.00984 -67.6744 -141.689)"/><path d="M718.64 353.223 724.013 353.223 724.013 367.371 718.64 367.371Z" fill="#000000" fill-rule="evenodd" fill-opacity="0.301961" transform="matrix(1 0 0 1.00984 -67.6744 -141.689)"/><path d="M718.64 372.25 724.013 372.25 724.013 377.129 718.64 377.129Z" fill="#000000" fill-rule="evenodd" fill-opacity="0.301961" transform="matrix(1 0 0 1.00984 -67.6744 -141.689)"/></g></g></g></g><g clip-path="url(#clip20)"><g clip-path="url(#clip21)"><g clip-path="url(#clip22)"><g clip-path="url(#clip23)"><path d="M609.764 268.65 578.001 268.65C574.242 268.65 571.195 271.648 571.195 275.345L571.195 266.418C571.195 262.721 574.242 259.723 578.001 259.723L600.688 259.723Z" fill="#FFA000" fill-rule="evenodd" transform="matrix(1.0085 0 0 1 -475.025 -155.981)"/><path d="M643.449 275.321 643.449 307.103C643.449 310.864 640.418 313.914 636.673 313.914L577.972 313.914C574.227 313.914 571.195 310.864 571.195 307.103L571.195 275.321C571.195 271.56 574.227 268.511 577.972 268.511L636.673 268.511C640.418 268.511 643.449 271.56 643.449 275.321Z" fill="#FFCA28" fill-rule="evenodd" transform="matrix(1.0085 0 0 1 -475.025 -155.981)"/></g></g></g></g><g clip-path="url(#clip24)"><g clip-path="url(#clip25)"><g clip-path="url(#clip26)"><g clip-path="url(#clip27)"><path d="M609.764 268.65 578.001 268.65C574.242 268.65 571.195 271.648 571.195 275.345L571.195 266.418C571.195 262.721 574.242 259.723 578.001 259.723L600.688 259.723Z" fill="#FFA000" fill-rule="evenodd" transform="matrix(1.0085 0 0 1 -374.997 -155.981)"/><path d="M643.449 275.321 643.449 307.103C643.449 310.864 640.418 313.914 636.673 313.914L577.972 313.914C574.227 313.914 571.195 310.864 571.195 307.103L571.195 275.321C571.195 271.56 574.227 268.511 577.972 268.511L636.673 268.511C640.418 268.511 643.449 271.56 643.449 275.321Z" fill="#FFCA28" fill-rule="evenodd" transform="matrix(1.0085 0 0 1 -374.997 -155.981)"/></g></g></g></g><g clip-path="url(#clip28)"><g clip-path="url(#clip29)"><g clip-path="url(#clip30)"><g clip-path="url(#clip31)"><path d="M553.92 211.623 522.179 211.623C518.422 211.623 515.378 214.619 515.378 218.314L515.378 209.392C515.378 205.697 518.422 202.702 522.179 202.702L544.85 202.702Z" fill="#FFA000" fill-rule="evenodd" transform="matrix(1 0 0 1.00066 -213.63 -99.0947)"/><path d="M587.583 218.29 587.583 250.05C587.583 253.809 584.553 256.856 580.812 256.856L522.149 256.856C518.408 256.856 515.378 253.809 515.378 250.05L515.378 218.29C515.378 214.531 518.408 211.484 522.149 211.484L580.812 211.484C584.553 211.484 587.583 214.531 587.583 218.29Z" fill="#FFCA28" fill-rule="evenodd" transform="matrix(1 0 0 1.00066 -213.63 -99.0947)"/></g></g></g></g><g clip-path="url(#clip32)"><g clip-path="url(#clip33)"><g clip-path="url(#clip34)"><g clip-path="url(#clip35)"><path d="M609.764 268.65 578.001 268.65C574.242 268.65 571.195 271.648 571.195 275.345L571.195 266.418C571.195 262.721 574.242 259.723 578.001 259.723L600.688 259.723Z" fill="#FFA000" fill-rule="evenodd" transform="matrix(1.0085 0 0 1 -173.615 -155.981)"/><path d="M643.449 275.321 643.449 307.103C643.449 310.864 640.418 313.914 636.673 313.914L577.972 313.914C574.227 313.914 571.195 310.864 571.195 307.103L571.195 275.321C571.195 271.56 574.227 268.511 577.972 268.511L636.673 268.511C640.418 268.511 643.449 271.56 643.449 275.321Z" fill="#FFCA28" fill-rule="evenodd" transform="matrix(1.0085 0 0 1 -173.615 -155.981)"/></g></g></g></g><g clip-path="url(#clip36)"><g clip-path="url(#clip37)"><g clip-path="url(#clip38)"><g clip-path="url(#clip39)"><path d="M609.764 268.65 578.001 268.65C574.242 268.65 571.195 271.648 571.195 275.345L571.195 266.418C571.195 262.721 574.242 259.723 578.001 259.723L600.688 259.723Z" fill="#FFA000" fill-rule="evenodd" transform="matrix(1.0085 0 0 1 -73.5873 -155.981)"/><path d="M643.449 275.321 643.449 307.103C643.449 310.864 640.418 313.914 636.673 313.914L577.972 313.914C574.227 313.914 571.195 310.864 571.195 307.103L571.195 275.321C571.195 271.56 574.227 268.511 577.972 268.511L636.673 268.511C640.418 268.511 643.449 271.56 643.449 275.321Z" fill="#FFCA28" fill-rule="evenodd" transform="matrix(1.0085 0 0 1 -73.5873 -155.981)"/></g></g></g></g><text font-family="Perospero,Perospero_MSFontService,sans-serif" font-weight="400" font-size="33" transform="matrix(0.662439 0 0 0.662879 24.7306 144)">bi<tspan font-size="33" x="19.5833" y="0">n</tspan><tspan font-size="33" x="151.562" y="0">etc</tspan><tspan font-size="33" x="289.687" y="0">home</tspan><tspan font-size="33" x="459.374" y="0">lib</tspan><tspan font-size="33" x="606.783" y="0">usr</tspan><tspan font-size="33" x="756.782" y="0">var</tspan><tspan font-size="33" x="903.448" y="0">blue</tspan></text><g clip-path="url(#clip40)"><g clip-path="url(#clip41)"><g clip-path="url(#clip42)"><g clip-path="url(#clip43)"><path d="M761.619 395.286 729.584 395.286C725.795 395.286 722.721 398.309 722.721 402.038L722.721 393.034C722.721 389.305 725.795 386.283 729.584 386.283L752.465 386.283Z" fill="#FFA000" fill-rule="evenodd" transform="matrix(1 0 0 1.00066 -213.63 -99.0947)"/><path d="M795.589 402.013 795.589 434.065C795.589 437.858 792.529 440.934 788.753 440.934L729.557 440.934C725.781 440.934 722.721 437.858 722.721 434.065L722.721 402.013C722.721 398.22 725.781 395.145 729.557 395.145L788.753 395.145C792.529 395.145 795.589 398.22 795.589 402.013Z" fill="#FFCA28" fill-rule="evenodd" transform="matrix(1 0 0 1.00066 -213.63 -99.0947)"/></g></g></g></g><text font-family="Perospero,Perospero_MSFontService,sans-serif" font-weight="400" font-size="33" transform="matrix(0.662439 0 0 0.662879 522.035 328)">guest<tspan font-size="33" x="63" y="0">1</tspan></text><g clip-path="url(#clip44)"><g clip-path="url(#clip45)"><g clip-path="url(#clip46)"><g clip-path="url(#clip47)"><path d="M609.359 268.472 577.618 268.472C573.861 268.472 570.816 271.467 570.816 275.163L570.816 266.242C570.816 262.546 573.861 259.551 577.618 259.551L600.289 259.551Z" fill="#FFA000" fill-rule="evenodd" transform="matrix(1 0 0 1.00984 32.3407 25.3383)"/><path d="M643.022 275.139 643.022 306.899C643.022 310.658 639.993 313.705 636.251 313.705L577.589 313.705C573.846 313.705 570.816 310.658 570.816 306.899L570.816 275.139C570.816 271.38 573.846 268.333 577.589 268.333L636.251 268.333C639.993 268.333 643.022 271.38 643.022 275.139Z" fill="#FFCA28" fill-rule="evenodd" transform="matrix(1 0 0 1.00984 32.3407 25.3383)"/></g></g></g></g><text font-family="Perospero,Perospero_MSFontService,sans-serif" font-weight="400" font-size="33" transform="matrix(0.662439 0 0 0.662879 614.65 328)">guest<tspan font-size="33" x="63" y="0">2</tspan></text><g clip-path="url(#clip48)"><g clip-path="url(#clip49)"><g clip-path="url(#clip50)"><g clip-path="url(#clip51)"><path d="M609.764 268.65 578.001 268.65C574.242 268.65 571.195 271.648 571.195 275.345L571.195 266.418C571.195 262.721 574.242 259.723 578.001 259.723L600.688 259.723Z" fill="#FFA000" fill-rule="evenodd" transform="matrix(1.0085 0 0 1 -219.324 -63.8412)"/><path d="M643.449 275.321 643.449 307.103C643.449 310.864 640.418 313.914 636.673 313.914L577.972 313.914C574.227 313.914 571.195 310.864 571.195 307.103L571.195 275.321C571.195 271.56 574.227 268.511 577.972 268.511L636.673 268.511C640.418 268.511 643.449 271.56 643.449 275.321Z" fill="#FFCA28" fill-rule="evenodd" transform="matrix(1.0085 0 0 1 -219.324 -63.8412)"/></g></g></g></g><g clip-path="url(#clip52)"><g clip-path="url(#clip53)"><g clip-path="url(#clip54)"><g clip-path="url(#clip55)"><path d="M705.617 303.702 673.879 303.702C670.123 303.702 667.076 306.698 667.076 310.393L667.076 301.471C667.076 297.776 670.123 294.781 673.879 294.781L696.548 294.781Z" fill="#FFA000" fill-rule="evenodd" transform="matrix(1 0 0 1.00066 -213.63 -99.0947)"/><path d="M739.282 310.369 739.282 342.129C739.282 345.888 736.255 348.935 732.512 348.935L673.846 348.935C670.103 348.935 667.076 345.888 667.076 342.129L667.076 310.369C667.076 306.61 670.103 303.563 673.846 303.563L732.512 303.563C736.255 303.563 739.282 306.61 739.282 310.369Z" fill="#FFCA28" fill-rule="evenodd" transform="matrix(1 0 0 1.00066 -213.63 -99.0947)"/></g></g></g></g><text font-family="Perospero,Perospero_MSFontService,sans-serif" font-weight="400" font-size="33" transform="matrix(0.662439 0 0 0.662879 384.535 236)">lib<tspan font-size="33" x="132.577" y="0">local</tspan></text><g clip-path="url(#clip56)"><g clip-path="url(#clip57)"><g clip-path="url(#clip58)"><g clip-path="url(#clip59)"><path d="M297.909 303.207 265.877 303.207C262.086 303.207 259.014 306.23 259.014 309.959L259.014 300.955C259.014 297.226 262.086 294.204 265.877 294.204L288.757 294.204Z" fill="#FFA000" fill-rule="evenodd" transform="matrix(1 0 0 1.00066 -213.63 -99.0947)"/><path d="M331.882 309.934 331.882 341.986C331.882 345.779 328.824 348.855 325.048 348.855L265.847 348.855C262.071 348.855 259.014 345.779 259.014 341.986L259.014 309.934C259.014 306.141 262.071 303.066 265.847 303.066L325.048 303.066C328.824 303.066 331.882 306.141 331.882 309.934Z" fill="#FFCA28" fill-rule="evenodd" transform="matrix(1 0 0 1.00066 -213.63 -99.0947)"/></g></g></g></g><g clip-path="url(#clip60)"><g clip-path="url(#clip61)"><g clip-path="url(#clip62)"><g clip-path="url(#clip63)"><path d="M609.359 268.472 577.618 268.472C573.861 268.472 570.816 271.467 570.816 275.163L570.816 266.242C570.816 262.546 573.861 259.551 577.618 259.551L600.289 259.551Z" fill="#FFA000" fill-rule="evenodd" transform="matrix(1 0 0 1.00984 -324.714 -66.8018)"/><path d="M643.022 275.139 643.022 306.899C643.022 310.658 639.993 313.705 636.251 313.705L577.589 313.705C573.846 313.705 570.816 310.658 570.816 306.899L570.816 275.139C570.816 271.38 573.846 268.333 577.589 268.333L636.251 268.333C639.993 268.333 643.022 271.38 643.022 275.139Z" fill="#FFCA28" fill-rule="evenodd" transform="matrix(1 0 0 1.00984 -324.714 -66.8018)"/></g></g></g></g><text font-family="Perospero,Perospero_MSFontService,sans-serif" font-weight="400" font-size="33" transform="matrix(0.662439 0 0 0.662879 65.4533 236)">to<tspan font-size="33" x="28.125" y="0">m</tspan><tspan font-size="33" x="302.604" y="0">jane</tspan><tspan font-size="33" x="149.345" y="0">john</tspan></text><g clip-path="url(#clip64)"><g clip-path="url(#clip65)"><g clip-path="url(#clip66)"><g clip-path="url(#clip67)"><path d="M609.764 268.65 578.001 268.65C574.242 268.65 571.195 271.648 571.195 275.345L571.195 266.418C571.195 262.721 574.242 259.723 578.001 259.723L600.688 259.723Z" fill="#FFA000" fill-rule="evenodd" transform="matrix(1.0085 0 0 1 -274.306 -249.448)"/><path d="M643.449 275.321 643.449 307.103C643.449 310.864 640.418 313.914 636.673 313.914L577.972 313.914C574.227 313.914 571.195 310.864 571.195 307.103L571.195 275.321C571.195 271.56 574.227 268.511 577.972 268.511L636.673 268.511C640.418 268.511 643.449 271.56 643.449 275.321Z" fill="#FFCA28" fill-rule="evenodd" transform="matrix(1.0085 0 0 1 -274.306 -249.448)"/></g></g></g></g><text font-family="Perospero,Perospero_MSFontService,sans-serif" font-weight="400" font-size="33" transform="matrix(0.662439 0 0 0.662879 334.514 51)">/</text><path d="M551.919 172.565 551.919 182.985 250.733 182.985 250.733 193.404" stroke="#000000" stroke-width="1.6561" stroke-linecap="round" stroke-miterlimit="8" fill="none" fill-rule="evenodd" transform="matrix(1 0 0 1.00066 -213.63 -99.0947)"/><path d="M0 0 10.4196 0 10.4196 301.186 20.8393 301.186" stroke="#000000" stroke-width="1.6561" stroke-linecap="round" stroke-miterlimit="8" fill="none" fill-rule="evenodd" transform="matrix(1.83697e-16 1.00066 1 -1.83819e-16 338.513 73.5852)"/><path d="M0 0 10.4125 0 10.4125 200.923 20.8248 200.923" stroke="#000000" stroke-width="1.6561" stroke-linecap="round" stroke-miterlimit="8" fill="none" fill-rule="evenodd" transform="matrix(1.83697e-16 1.00066 1 -1.83819e-16 338.513 73.5852)"/><path d="M0 0 10.4125 0 10.4125 100.66 20.8248 100.66" stroke="#000000" stroke-width="1.6561" stroke-linecap="round" stroke-miterlimit="8" fill="none" fill-rule="evenodd" transform="matrix(1.83697e-16 1.00066 1 -1.83819e-16 338.513 73.5852)"/><path d="M551.878 172.565 551.878 182.978 551.481 182.978 551.481 193.39" stroke="#000000" stroke-width="1.6561" stroke-linecap="round" stroke-miterlimit="8" fill="none" fill-rule="evenodd" transform="matrix(1 0 0 1.00066 -213.63 -99.0947)"/><path d="M552.112 172.565 552.112 182.978 451.452 182.978 451.452 193.39" stroke="#000000" stroke-width="1.6561" stroke-linecap="round" stroke-miterlimit="8" fill="none" fill-rule="evenodd" transform="matrix(1 0 0 1.00066 -213.63 -99.0947)"/><path d="M552.181 172.565 552.181 182.978 351.424 182.978 351.424 193.39" stroke="#000000" stroke-width="1.6561" stroke-linecap="round" stroke-miterlimit="8" fill="none" fill-rule="evenodd" transform="matrix(1 0 0 1.00066 -213.63 -99.0947)"/><path d="M451.649 265.969 451.649 275.668 295.779 275.668 295.779 285.366" stroke="#000000" stroke-width="1.6561" stroke-linecap="round" stroke-miterlimit="8" fill="none" fill-rule="evenodd" transform="matrix(1 0 0 1.00066 -213.63 -99.0947)"/><path d="M0 0 9.69844 0 9.69844 44.6557 19.3969 44.6557" stroke="#000000" stroke-width="1.6561" stroke-linecap="round" stroke-miterlimit="8" fill="none" fill-rule="evenodd" transform="matrix(1.83697e-16 1.00066 1 -1.83819e-16 237.822 167.051)"/><path d="M451.414 265.969 451.414 275.668 395.807 275.668 395.807 285.366" stroke="#000000" stroke-width="1.6561" stroke-linecap="round" stroke-miterlimit="8" fill="none" fill-rule="evenodd" transform="matrix(1 0 0 1.00066 -213.63 -99.0947)"/><path d="M652.52 265.969 652.52 275.78 607.125 275.78 607.125 285.591" stroke="#000000" stroke-width="1.6561" stroke-linecap="round" stroke-miterlimit="8" fill="none" fill-rule="evenodd" transform="matrix(1 0 0 1.00066 -213.63 -99.0947)"/><path d="M0 0 9.81059 0 9.81059 50.9165 19.6212 50.9165" stroke="#000000" stroke-width="1.6561" stroke-linecap="round" stroke-miterlimit="8" fill="none" fill-rule="evenodd" transform="matrix(1.83697e-16 1.00066 1 -1.83819e-16 439.203 167.051)"/><path d="M853.281 358.048 853.281 367.75 759.486 367.75 759.486 377.452" stroke="#000000" stroke-width="1.6561" stroke-linecap="round" stroke-miterlimit="8" fill="none" fill-rule="evenodd" transform="matrix(1 0 0 1.00066 -213.63 -99.0947)"/><g clip-path="url(#clip68)"><g clip-path="url(#clip69)"><g clip-path="url(#clip70)"><g clip-path="url(#clip71)"><path d="M609.359 268.472 577.618 268.472C573.861 268.472 570.816 271.467 570.816 275.163L570.816 266.242C570.816 262.546 573.861 259.551 577.618 259.551L600.289 259.551Z" fill="#FFA000" fill-rule="evenodd" transform="matrix(1 0 0 1.00984 -324.714 24.6754)"/><path d="M643.022 275.139 643.022 306.899C643.022 310.658 639.993 313.705 636.251 313.705L577.589 313.705C573.846 313.705 570.816 310.658 570.816 306.899L570.816 275.139C570.816 271.38 573.846 268.333 577.589 268.333L636.251 268.333C639.993 268.333 643.022 271.38 643.022 275.139Z" fill="#FFCA28" fill-rule="evenodd" transform="matrix(1 0 0 1.00984 -324.714 24.6754)"/></g></g></g></g><text font-family="Perospero,Perospero_MSFontService,sans-serif" font-weight="400" font-size="33" transform="matrix(0.662439 0 0 0.662879 65.4533 327)">to<tspan font-size="33" x="28.125" y="0">m</tspan><tspan font-size="33" x="287.291" y="0">photos</tspan></text><path d="M274.818 386.233 325.051 386.202C328.823 386.202 331.882 389.85 331.882 394.35L331.882 432.374C331.882 436.874 328.823 440.522 325.051 440.522L265.845 440.522C262.072 440.522 259.014 436.874 259.014 432.374L259.045 401.91C259.22 399.999 260.128 398.021 261.729 396.43L269.304 388.901C270.905 387.31 272.894 386.407 274.818 386.233Z" fill="#64D4FC" fill-rule="evenodd" transform="matrix(1 0 0 1.00066 -213.63 -99.0947)"/><g clip-path="url(#clip72)"><g clip-path="url(#clip73)"><g clip-path="url(#clip74)"><path d="M1.60311 0.754363C1.01152 0.162775 0 0.581759 0 1.41838L0 10.3298C0 10.8485 0.42044 11.2689 0.93908 11.2689L9.85058 11.2689C10.6872 11.2689 11.1062 10.2575 10.5146 9.66583L1.60311 0.754363Z" fill="#E1F5FE" fill-rule="evenodd" transform="matrix(-1.83575e-16 -1 1.05812 -1.94503e-16 48.6956 302.61)"/></g></g></g><text font-family="Perospero,Perospero_MSFontService,sans-serif" font-weight="400" font-size="33" transform="matrix(0.662439 0 0 0.662879 56.7582 328)">.<tspan font-size="33" x="1.45834" y="0">bashrc</tspan></text><g clip-path="url(#clip75)"><g clip-path="url(#clip76)"><g clip-path="url(#clip77)"><g clip-path="url(#clip78)"><path d="M398.6 394.624 366.568 394.624C362.777 394.624 359.704 397.646 359.704 401.375L359.704 392.372C359.704 388.643 362.777 385.62 366.568 385.62L389.447 385.62Z" fill="#FFA000" fill-rule="evenodd" transform="matrix(1 0 0 1.00066 -213.63 -99.0947)"/><path d="M432.573 401.351 432.573 433.403C432.573 437.196 429.515 440.272 425.739 440.272L366.538 440.272C362.762 440.272 359.704 437.196 359.704 433.403L359.704 401.351C359.704 397.558 362.762 394.482 366.538 394.482L425.739 394.482C429.515 394.482 432.573 397.558 432.573 401.351Z" fill="#FFCA28" fill-rule="evenodd" transform="matrix(1 0 0 1.00066 -213.63 -99.0947)"/></g></g></g></g><text font-family="Perospero,Perospero_MSFontService,sans-serif" font-weight="400" font-size="33" transform="matrix(0.662439 0 0 0.662879 161.763 327)">music</text><path d="M396.042 358.048 396.042 367.747 295.779 367.747 295.779 377.445" stroke="#000000" stroke-width="1.6561" stroke-linecap="round" stroke-miterlimit="8" fill="none" fill-rule="evenodd" transform="matrix(1 0 0 1.00066 -213.63 -99.0947)"/><path d="M0 0 9.35775 0 9.35775 100.263 18.7156 100.263" stroke="#000000" stroke-width="1.6561" stroke-linecap="round" stroke-miterlimit="8" fill="none" fill-rule="evenodd" transform="matrix(1.83697e-16 1.00066 1 -1.83819e-16 182.177 259.191)"/><path d="M395.807 358.048 395.807 376.764" stroke="#000000" stroke-width="1.6561" stroke-linecap="round" stroke-miterlimit="8" fill="none" fill-rule="evenodd" transform="matrix(1 0 0 1.00066 -213.63 -99.0947)"/><path d="M852.89 265.969 852.89 285.366" stroke="#000000" stroke-width="1.6561" stroke-linecap="round" stroke-miterlimit="8" fill="none" fill-rule="evenodd" transform="matrix(1 0 0 1.00066 -213.63 -99.0947)"/><path d="M852.89 358.048 852.89 377.445" stroke="#000000" stroke-width="1.6561" stroke-linecap="round" stroke-miterlimit="8" fill="none" fill-rule="evenodd" transform="matrix(1 0 0 1.00066 -213.63 -99.0947)"/><g clip-path="url(#clip79)"><g clip-path="url(#clip80)"><g clip-path="url(#clip81)"><g clip-path="url(#clip82)"><path d="M667.553 395.286 635.518 395.286C631.727 395.286 628.655 398.309 628.655 402.038L628.655 393.034C628.655 389.305 631.727 386.283 635.518 386.283L658.398 386.283Z" fill="#FFA000" fill-rule="evenodd" transform="matrix(1 0 0 1.00066 -213.63 -99.0947)"/><path d="M701.523 402.013 701.523 434.065C701.523 437.858 698.462 440.934 694.687 440.934L635.488 440.934C631.712 440.934 628.655 437.858 628.655 434.065L628.655 402.013C628.655 398.22 631.712 395.145 635.488 395.145L694.687 395.145C698.462 395.145 701.523 398.22 701.523 402.013Z" fill="#FFCA28" fill-rule="evenodd" transform="matrix(1 0 0 1.00066 -213.63 -99.0947)"/></g></g></g></g><text font-family="Perospero,Perospero_MSFontService,sans-serif" font-weight="400" font-size="33" transform="matrix(0.662439 0 0 0.662879 445.008 328)">aj</text><path d="M853.01 358.048 853.01 367.747 665.42 367.747 665.42 377.445" stroke="#000000" stroke-width="1.6561" stroke-linecap="round" stroke-miterlimit="8" fill="none" fill-rule="evenodd" transform="matrix(1 0 0 1.00066 -213.63 -99.0947)"/><text font-family="Perospero,Perospero_MSFontService,sans-serif" font-weight="400" font-size="27" transform="matrix(0.662439 0 0 0.662879 612.312 226)">g<tspan font-size="27" x="10.8334" y="0">eneral</tspan><tspan font-size="27" x="68.8334" y="0">_</tspan><tspan font-size="27" x="-4.48339" y="25.6457">workshop</tspan></text></g></svg>